<?xml version="1.0" encoding="utf-8"?>
<!-- Generator: Adobe Illustrator 16.0.4, SVG Export Plug-In . SVG Version: 6.00 Build 0)  -->
<!DOCTYPE svg PUBLIC "-//W3C//DTD SVG 1.1//EN" "http://www.w3.org/Graphics/SVG/1.1/DTD/svg11.dtd">
<svg version="1.1" xmlns="http://www.w3.org/2000/svg" xmlns:xlink="http://www.w3.org/1999/xlink" x="0px" y="0px" width="456px"
	 height="205px" viewBox="0 0 456 205" enable-background="new 0 0 456 205" xml:space="preserve">
<g id="BG" display="none">
	<rect y="0.002" display="inline" fill="#FFFFFF" width="455.999" height="320"/>
</g>
<g id="Discount_Interantional">
</g>
<g id="Dischount_National">
</g>
<g id="Fachmarkt">
</g>
<g id="Produktionsbetriebe">
	<g>
		<g>
			<defs>
				<rect id="SVGID_23_" x="129.923" y="60.754" width="196.152" height="115.644"/>
			</defs>
			<clipPath id="SVGID_2_">
				<use xlink:href="#SVGID_23_"  overflow="visible"/>
			</clipPath>
			<rect x="129.923" y="60.754" clip-path="url(#SVGID_2_)" fill="#FFFFFF" width="196.152" height="115.644"/>
			<g clip-path="url(#SVGID_2_)">
				<defs>
					<rect id="SVGID_25_" x="129.923" y="60.754" width="196.152" height="115.644"/>
				</defs>
				<clipPath id="SVGID_4_">
					<use xlink:href="#SVGID_25_"  overflow="visible"/>
				</clipPath>
				<path clip-path="url(#SVGID_4_)" fill="#706F6F" d="M137.325,147.011v5.523h1.984c2.373,0,3.189-1.128,3.189-2.956
					c0-1.945-1.051-2.567-3.229-2.567H137.325z M143.354,168.405l-2.839-7.585c-1.05-2.801-1.673-3.15-3.19-3.15v10.735h-6.963
					v-27.113h9.336c7.975,0,10.543,3.229,10.543,7.741c0,4.668-2.451,7.041-5.641,7.586c0.933,0.271,2.062,1.517,2.723,2.917
					c0.895,1.829,3.189,6.847,4.085,8.869H143.354z"/>
				<polygon clip-path="url(#SVGID_4_)" fill="#706F6F" points="154.279,168.405 154.279,141.292 169.528,141.292 169.528,147.011 
					161.242,147.011 161.242,151.562 168.012,151.562 168.012,157.086 161.242,157.086 161.242,162.609 170.54,162.609 
					170.54,168.405 				"/>
				<path clip-path="url(#SVGID_4_)" fill="#706F6F" d="M198.629,168.405h-7.431l-1.4-7.858c-0.584-3.267-1.205-6.807-1.322-8.519
					h-0.039c-0.078,1.362-0.662,4.979-1.322,8.519l-1.439,7.858h-7.586l-6.574-27.113h7.352l1.518,7.313
					c1.283,6.106,1.518,8.752,1.557,9.764h0.038c0.156-2.179,0.622-5.562,1.362-9.569l1.4-7.508h7.74l1.751,9.064
					c0.39,2.062,0.934,4.668,1.09,7.974h0.038c0.156-2.411,0.974-7.663,1.519-10.309l1.361-6.729h7.429L198.629,168.405z"/>
				<polygon clip-path="url(#SVGID_4_)" fill="#706F6F" points="207.616,168.405 207.616,141.292 222.865,141.292 222.866,147.011 
					214.581,147.011 214.581,151.562 221.35,151.562 221.35,157.086 214.581,157.086 214.581,162.609 223.878,162.609 
					223.878,168.405 				"/>
				
					<rect x="323.296" y="141.292" clip-path="url(#SVGID_4_)" fill-rule="evenodd" clip-rule="evenodd" fill="#706F6F" width="2.582" height="27.113"/>
				<path clip-path="url(#SVGID_4_)" fill-rule="evenodd" clip-rule="evenodd" fill="#706F6F" d="M310.016,147.379
					c-5.909,0-10.698,4.789-10.698,10.697s4.789,10.698,10.698,10.698c3.247,0,6.153-1.448,8.116-3.732v3.363h2.582v-10.329
					C320.714,152.168,315.924,147.379,310.016,147.379 M310.016,166.192c-4.482,0-8.116-3.634-8.116-8.116s3.634-8.115,8.116-8.115
					s8.116,3.633,8.116,8.115S314.498,166.192,310.016,166.192"/>
				<polygon clip-path="url(#SVGID_4_)" fill-rule="evenodd" clip-rule="evenodd" fill="#706F6F" points="284.931,147.747 
					284.931,168.405 287.513,168.405 287.513,150.33 293.046,150.33 293.046,168.405 295.628,168.405 295.628,150.33 
					300.932,150.33 300.932,147.747 295.628,147.747 295.628,141.292 293.046,141.292 293.046,147.747 				"/>
				<path clip-path="url(#SVGID_4_)" fill-rule="evenodd" clip-rule="evenodd" fill="#706F6F" d="M282.349,165.454L282.349,165.454
					c0,5.909-4.79,10.698-10.698,10.698c-5.215,0-9.558-3.731-10.505-8.669h2.645c0.901,3.501,4.078,6.087,7.86,6.087
					c4.481,0,8.115-3.634,8.115-8.116v-0.408c-1.962,2.282-4.87,3.729-8.115,3.729c-5.909,0-10.698-4.79-10.698-10.698
					s4.789-10.697,10.698-10.697c5.908,0,10.698,4.789,10.698,10.697V165.454z M271.65,149.961c-4.482,0-8.116,3.633-8.116,8.115
					s3.634,8.116,8.116,8.116c4.481,0,8.115-3.634,8.115-8.116S276.132,149.961,271.65,149.961"/>
				
					<rect x="256.064" y="147.747" clip-path="url(#SVGID_4_)" fill-rule="evenodd" clip-rule="evenodd" fill="#706F6F" width="2.582" height="20.658"/>
				<path clip-path="url(#SVGID_4_)" fill-rule="evenodd" clip-rule="evenodd" fill="#706F6F" d="M253.298,158.076
					c0,5.908-4.79,10.698-10.698,10.698s-10.698-4.79-10.698-10.698s4.79-10.697,10.698-10.697c3.245,0,6.153,1.445,8.115,3.728
					v-9.814h2.583V158.076L253.298,158.076z M242.6,149.961c-4.482,0-8.116,3.633-8.116,8.115s3.634,8.116,8.116,8.116
					c4.481,0,8.115-3.634,8.115-8.116S247.081,149.961,242.6,149.961"/>
				<path clip-path="url(#SVGID_4_)" fill-rule="evenodd" clip-rule="evenodd" fill="#706F6F" d="M257.355,141.107
					c0.814,0,1.476,0.66,1.476,1.476c0,0.814-0.661,1.476-1.476,1.476c-0.815,0-1.476-0.661-1.476-1.476
					C255.88,141.768,256.54,141.107,257.355,141.107"/>
				<path clip-path="url(#SVGID_4_)" fill-rule="evenodd" clip-rule="evenodd" fill="#706F6F" d="M286.222,141.107
					c0.814,0,1.476,0.66,1.476,1.476c0,0.814-0.661,1.476-1.476,1.476c-0.815,0-1.476-0.661-1.476-1.476
					C284.746,141.768,285.406,141.107,286.222,141.107"/>
				<path clip-path="url(#SVGID_4_)" fill-rule="evenodd" clip-rule="evenodd" fill="#706F6F" d="M267.597,99.253
					c-0.446-0.06-0.662-0.357-0.484-0.665c0.177-0.307,0.68-0.508,1.125-0.449c0.446,0.059,0.666,0.355,0.489,0.664
					S268.043,99.313,267.597,99.253 M271.788,91.968c-0.441-0.05-0.66-0.328-0.49-0.622c0.17-0.293,0.662-0.49,1.103-0.441
					c0.44,0.048,0.663,0.326,0.494,0.62C272.726,91.819,272.229,92.019,271.788,91.968 M275.793,85.007
					c-0.435-0.041-0.655-0.302-0.493-0.582s0.645-0.475,1.079-0.436c0.436,0.04,0.659,0.3,0.498,0.581
					S276.229,85.048,275.793,85.007 M279.656,78.294c-0.383-0.028-0.581-0.245-0.442-0.484c0.138-0.238,0.559-0.409,0.94-0.381
					c0.382,0.027,0.582,0.243,0.445,0.483C280.462,78.151,280.039,78.322,279.656,78.294 M283.353,71.869
					c-0.331-0.02-0.505-0.197-0.389-0.397c0.115-0.199,0.477-0.347,0.807-0.328s0.506,0.195,0.391,0.396
					C284.046,71.74,283.685,71.889,283.353,71.869 M286.923,65.664c-0.233-0.01-0.358-0.128-0.279-0.266
					c0.079-0.137,0.332-0.24,0.565-0.231c0.233,0.01,0.358,0.128,0.28,0.266C287.41,65.57,287.157,65.674,286.923,65.664
					 M255.22,110.451c-0.83-0.143-1.203-0.754-0.838-1.364c0.363-0.609,1.326-0.991,2.155-0.855
					c0.832,0.137,1.217,0.744,0.855,1.358C257.03,110.207,256.055,110.594,255.22,110.451 M259.79,102.748
					c-0.822-0.121-1.201-0.693-0.853-1.276c0.347-0.581,1.289-0.957,2.109-0.842c0.823,0.115,1.214,0.684,0.869,1.271
					C261.569,102.489,260.616,102.869,259.79,102.748 M264.153,95.394c-0.813-0.102-1.199-0.637-0.865-1.193
					c0.332-0.556,1.255-0.926,2.064-0.829c0.814,0.097,1.211,0.629,0.881,1.188C265.903,95.122,264.97,95.496,264.153,95.394
					 M268.322,88.367c-0.805-0.084-1.194-0.586-0.876-1.118c0.317-0.531,1.222-0.896,2.023-0.817
					c0.805,0.08,1.206,0.578,0.891,1.113C270.044,88.083,269.13,88.451,268.322,88.367 M272.31,81.645
					c-0.795-0.068-1.189-0.537-0.885-1.048c0.305-0.508,1.19-0.867,1.983-0.804c0.796,0.063,1.2,0.529,0.899,1.043
					C274.005,81.35,273.108,81.713,272.31,81.645 M276.159,75.155c-0.74-0.05-1.114-0.464-0.84-0.924
					c0.274-0.459,1.094-0.792,1.831-0.746c0.741,0.047,1.124,0.458,0.852,0.92C277.729,74.869,276.902,75.205,276.159,75.155
					 M279.967,68.737c-0.503-0.024-0.763-0.291-0.582-0.595c0.181-0.303,0.733-0.529,1.235-0.506
					c0.504,0.023,0.768,0.289,0.588,0.594C281.027,68.535,280.472,68.763,279.967,68.737 M251.853,106.485
					c-1.368-0.221-1.966-1.212-1.348-2.211c0.615-0.992,2.207-1.629,3.568-1.425c1.371,0.206,2.002,1.187,1.394,2.195
					C254.855,106.061,253.231,106.707,251.853,106.485 M256.392,99.052c-1.354-0.187-1.963-1.115-1.372-2.069
					c0.587-0.949,2.146-1.576,3.493-1.403c1.358,0.173,1.999,1.092,1.418,2.056C259.347,98.604,257.757,99.24,256.392,99.052
					 M260.729,91.948c-1.34-0.156-1.959-1.026-1.394-1.939c0.562-0.907,2.089-1.524,3.423-1.382
					c1.344,0.144,1.993,1.004,1.438,1.925C263.639,91.479,262.081,92.106,260.729,91.948 M264.88,85.153
					c-1.326-0.129-1.954-0.944-1.413-1.818c0.538-0.869,2.035-1.478,3.355-1.362c1.329,0.117,1.986,0.924,1.454,1.806
					C267.743,84.665,266.217,85.282,264.88,85.153 M268.886,78.594c-1.268-0.1-1.881-0.838-1.38-1.646
					c0.497-0.805,1.916-1.384,3.177-1.296c1.271,0.089,1.91,0.818,1.418,1.634C271.606,78.105,270.163,78.692,268.886,78.594
					 M272.849,72.105c-1.03-0.062-1.541-0.631-1.146-1.269c0.392-0.635,1.535-1.104,2.562-1.05c1.031,0.055,1.559,0.618,1.172,1.261
					C275.046,71.692,273.885,72.167,272.849,72.105 M276.821,65.6c-0.532-0.021-0.803-0.3-0.606-0.619
					c0.196-0.32,0.784-0.562,1.315-0.541c0.533,0.021,0.808,0.297,0.613,0.618C277.947,65.379,277.354,65.622,276.821,65.6
					 M265.708,75.52c-1.579-0.111-2.327-1.019-1.688-2.021c0.636-0.996,2.41-1.725,3.979-1.631c1.584,0.096,2.372,0.988,1.746,2.002
					C269.115,74.89,267.3,75.631,265.708,75.52 M269.898,68.844c-0.999-0.051-1.487-0.595-1.096-1.211
					c0.39-0.614,1.507-1.073,2.501-1.028c1.001,0.045,1.505,0.582,1.119,1.202C272.036,68.43,270.902,68.896,269.898,68.844
					 M273.964,62.367c-0.344-0.011-0.518-0.188-0.387-0.395c0.129-0.206,0.514-0.364,0.855-0.354
					c0.345,0.011,0.52,0.187,0.391,0.394C274.693,62.221,274.309,62.379,273.964,62.367 M262.986,72.082
					c-1.446-0.089-2.122-0.906-1.522-1.822c0.595-0.911,2.232-1.585,3.67-1.511c1.449,0.075,2.16,0.882,1.572,1.806
					C266.116,71.485,264.444,72.171,262.986,72.082 M267.294,65.396c-0.674-0.028-1-0.389-0.73-0.804
					c0.268-0.415,1.029-0.729,1.701-0.703c0.676,0.026,1.009,0.384,0.742,0.801C268.739,65.108,267.971,65.426,267.294,65.396
					 M260.673,68.37c-0.95-0.049-1.391-0.576-0.989-1.177c0.397-0.598,1.483-1.046,2.43-1.004c0.951,0.043,1.407,0.566,1.012,1.17
					C262.728,67.966,261.628,68.42,260.673,68.37 M264.84,62.062c-0.327-0.011-0.484-0.183-0.351-0.385
					c0.133-0.2,0.506-0.354,0.832-0.344c0.328,0.01,0.486,0.182,0.354,0.383C265.542,61.919,265.168,62.073,264.84,62.062
					 M260.379,73.262c-0.664,1.02-2.476,1.763-4.03,1.653c-1.54-0.108-2.23-1.014-1.559-2.017c0.668-0.996,2.438-1.726,3.971-1.634
					C260.306,71.357,261.038,72.248,260.379,73.262 M254.266,71.047c-0.97-0.059-1.403-0.618-0.973-1.248
					c0.429-0.628,1.555-1.094,2.522-1.042c0.973,0.052,1.422,0.605,0.997,1.24C256.386,70.634,255.242,71.104,254.266,71.047
					 M258.469,64.834c-0.481-0.02-0.703-0.283-0.497-0.587c0.206-0.303,0.762-0.533,1.242-0.515c0.482,0.02,0.708,0.28,0.502,0.585
					C259.511,64.623,258.952,64.854,258.469,64.834 M253.551,75.918c-0.61,0.914-2.216,1.573-3.572,1.467
					c-1.346-0.106-1.926-0.926-1.309-1.826c0.613-0.896,2.186-1.543,3.525-1.451C253.546,74.201,254.157,75.01,253.551,75.918
					 M248.058,73.469c-0.793-0.055-1.133-0.528-0.764-1.057c0.367-0.527,1.303-0.914,2.093-0.864
					c0.794,0.049,1.146,0.519,0.78,1.051C249.8,73.132,248.854,73.522,248.058,73.469 M252.251,67.409
					c-0.473-0.023-0.682-0.291-0.469-0.596c0.212-0.306,0.764-0.534,1.235-0.513c0.472,0.022,0.685,0.288,0.474,0.595
					S252.724,67.433,252.251,67.409 M247.432,78.611c-0.725,1.062-2.565,1.816-4.096,1.681c-1.517-0.135-2.14-1.094-1.408-2.137
					c0.727-1.035,2.526-1.776,4.036-1.66C247.485,76.612,248.15,77.558,247.432,78.611 M241.511,76.409
					c-1.047-0.081-1.475-0.731-0.962-1.449c0.51-0.715,1.763-1.232,2.808-1.16c1.05,0.074,1.498,0.718,0.991,1.44
					C243.839,75.967,242.565,76.491,241.511,76.409 M246.13,69.879c-0.387-0.023-0.55-0.249-0.368-0.505s0.64-0.446,1.025-0.425
					c0.386,0.021,0.552,0.246,0.371,0.503C246.977,69.71,246.516,69.9,246.13,69.879 M250.17,64.164
					c-0.191-0.008-0.275-0.113-0.188-0.237c0.088-0.123,0.313-0.218,0.505-0.21s0.275,0.114,0.188,0.238
					C250.587,64.078,250.361,64.172,250.17,64.164 M234.841,79.539c-1.442-0.128-1.997-1.059-1.256-2.074
					c0.737-1.008,2.486-1.731,3.924-1.621c1.448,0.112,2.043,1.029,1.312,2.055C238.085,78.931,236.296,79.668,234.841,79.539
					 M239.806,72.662c-0.566-0.038-0.796-0.383-0.516-0.77c0.281-0.386,0.963-0.669,1.528-0.634
					c0.567,0.036,0.803,0.379,0.524,0.767C241.062,72.415,240.374,72.7,239.806,72.662 M244.191,66.588
					c-0.112-0.006-0.16-0.07-0.106-0.146c0.055-0.074,0.189-0.131,0.302-0.125c0.112,0.005,0.16,0.07,0.106,0.145
					C244.438,66.537,244.304,66.593,244.191,66.588 M233.329,75.673c-0.924-0.071-1.277-0.656-0.797-1.304
					c0.479-0.645,1.608-1.113,2.529-1.049c0.927,0.064,1.297,0.644,0.82,1.296C235.404,75.271,234.259,75.744,233.329,75.673
					 M238.046,69.269c-0.258-0.015-0.361-0.169-0.232-0.344c0.13-0.175,0.442-0.305,0.699-0.29c0.258,0.015,0.362,0.168,0.232,0.343
					C238.616,69.153,238.303,69.284,238.046,69.269 M226.973,78.535c-1.157-0.102-1.575-0.862-0.943-1.695
					c0.628-0.828,2.063-1.425,3.218-1.335c1.161,0.091,1.605,0.843,0.981,1.683C229.601,78.032,228.138,78.637,226.973,78.535
					 M231.92,71.988c-0.449-0.029-0.621-0.309-0.384-0.623c0.235-0.313,0.79-0.545,1.24-0.517c0.449,0.029,0.625,0.308,0.39,0.622
					C232.931,71.786,232.371,72.019,231.92,71.988 M236.23,66.2c-0.107-0.005-0.149-0.067-0.095-0.141s0.186-0.127,0.293-0.122
					s0.15,0.068,0.096,0.141C236.47,66.151,236.338,66.206,236.23,66.2 M220.78,81.196c-1.238-0.121-1.659-0.966-0.951-1.882
					c0.703-0.91,2.265-1.559,3.499-1.451c1.245,0.107,1.697,0.941,0.998,1.865C223.622,80.659,222.029,81.318,220.78,81.196
					 M225.715,74.741c-0.634-0.049-0.862-0.457-0.513-0.912c0.349-0.454,1.142-0.784,1.775-0.739
					c0.636,0.045,0.872,0.451,0.524,0.908C227.153,74.457,226.353,74.79,225.715,74.741 M230.343,68.688
					c-0.141-0.009-0.193-0.094-0.119-0.191c0.075-0.098,0.249-0.17,0.39-0.162c0.14,0.008,0.193,0.093,0.119,0.19
					C230.657,68.623,230.483,68.696,230.343,68.688 M219.706,77.301c-0.689-0.059-0.924-0.52-0.526-1.027
					c0.396-0.507,1.272-0.872,1.962-0.817c0.692,0.056,0.936,0.513,0.541,1.024C221.286,76.992,220.399,77.361,219.706,77.301
					 M224.411,71.253c-0.24-0.016-0.326-0.167-0.192-0.339s0.437-0.298,0.677-0.283c0.241,0.016,0.328,0.168,0.195,0.34
					C224.957,71.143,224.653,71.27,224.411,71.253 M218.255,82.241c-0.721,0.937-2.307,1.592-3.527,1.46
					c-1.213-0.13-1.6-0.986-0.875-1.908c0.72-0.915,2.273-1.561,3.482-1.444C218.554,80.466,218.971,81.312,218.255,82.241
					 M208.819,86.048c-1.085-0.127-1.408-0.92-0.731-1.768c0.673-0.843,2.087-1.43,3.17-1.314c1.091,0.116,1.438,0.9,0.769,1.755
					C211.353,85.58,209.911,86.176,208.819,86.048 M213.797,79.758c-0.676-0.064-0.892-0.532-0.484-1.043
					c0.405-0.51,1.277-0.873,1.952-0.812c0.678,0.06,0.903,0.524,0.498,1.038C215.357,79.456,214.476,79.822,213.797,79.758
					 M218.539,73.765c-0.303-0.023-0.405-0.222-0.229-0.444c0.176-0.221,0.563-0.383,0.866-0.361
					c0.303,0.022,0.407,0.221,0.231,0.442C219.231,73.625,218.843,73.787,218.539,73.765 M222.926,68.221
					c-0.101-0.006-0.136-0.068-0.079-0.14s0.184-0.125,0.284-0.119s0.136,0.068,0.08,0.14
					C223.154,68.173,223.026,68.227,222.926,68.221 M203.103,88.186c-0.829-0.105-1.059-0.732-0.52-1.398
					c0.537-0.664,1.64-1.121,2.468-1.023c0.833,0.098,1.078,0.72,0.542,1.391C205.055,87.828,203.937,88.291,203.103,88.186
					 M208.029,82.061c-0.563-0.059-0.73-0.461-0.377-0.898c0.353-0.436,1.091-0.743,1.652-0.688
					c0.563,0.056,0.738,0.456,0.387,0.896C209.339,81.811,208.594,82.12,208.029,82.061 M212.764,76.174
					c-0.296-0.024-0.391-0.227-0.21-0.449c0.18-0.223,0.564-0.384,0.861-0.36c0.297,0.024,0.393,0.226,0.213,0.449
					S213.062,76.199,212.764,76.174 M217.214,70.642c-0.131-0.009-0.176-0.093-0.098-0.188c0.076-0.096,0.245-0.167,0.377-0.158
					c0.131,0.008,0.176,0.093,0.099,0.188S217.345,70.65,217.214,70.642 M200.404,91.541c0.902,0.125,1.152,0.835,0.552,1.588
					c-0.604,0.757-1.834,1.264-2.737,1.129c-0.898-0.135-1.13-0.851-0.524-1.598C198.297,91.916,199.507,91.416,200.404,91.541
					 M197.548,90.16c-0.487-0.065-0.612-0.446-0.282-0.849c0.329-0.401,0.989-0.675,1.476-0.611c0.488,0.063,0.62,0.441,0.29,0.846
					C198.702,89.951,198.036,90.227,197.548,90.16 M202.372,84.257c-0.39-0.044-0.497-0.332-0.242-0.643
					c0.254-0.31,0.773-0.526,1.162-0.483s0.5,0.329,0.246,0.641C203.284,84.084,202.761,84.301,202.372,84.257 M207.09,78.482
					c-0.226-0.021-0.293-0.181-0.149-0.355c0.143-0.174,0.441-0.299,0.667-0.278c0.227,0.021,0.294,0.179,0.151,0.354
					C207.616,78.378,207.316,78.503,207.09,78.482 M211.562,73.009c-0.128-0.01-0.169-0.096-0.09-0.192
					c0.079-0.096,0.247-0.166,0.376-0.157c0.128,0.01,0.169,0.096,0.091,0.192C211.859,72.947,211.691,73.019,211.562,73.009
					 M191.956,92.218c-0.223-0.032-0.275-0.212-0.118-0.4c0.157-0.189,0.464-0.316,0.687-0.284c0.223,0.031,0.276,0.211,0.119,0.4
					C192.487,92.123,192.179,92.25,191.956,92.218 M196.75,86.438c-0.222-0.027-0.278-0.197-0.127-0.38
					c0.151-0.182,0.453-0.308,0.675-0.28c0.223,0.026,0.28,0.196,0.129,0.379S196.973,86.466,196.75,86.438 M201.484,80.731
					c-0.126-0.013-0.161-0.104-0.078-0.205s0.253-0.171,0.38-0.159c0.127,0.014,0.162,0.105,0.078,0.206
					C201.781,80.674,201.611,80.745,201.484,80.731 M205.974,75.32c-0.095-0.008-0.123-0.073-0.062-0.146
					c0.061-0.073,0.186-0.125,0.28-0.118c0.095,0.008,0.122,0.073,0.062,0.146C206.193,75.275,206.067,75.328,205.974,75.32
					 M187.484,97.608c0.159,0.026,0.194,0.162,0.078,0.303s-0.341,0.232-0.5,0.206c-0.159-0.027-0.193-0.162-0.077-0.303
					C187.103,97.674,187.325,97.582,187.484,97.608 M182.288,103.872c0.128,0.024,0.153,0.139,0.057,0.256
					c-0.098,0.117-0.279,0.191-0.406,0.167c-0.128-0.024-0.152-0.14-0.056-0.256C181.979,103.922,182.161,103.848,182.288,103.872
					 M193.857,94.678c0.457,0.069,0.57,0.443,0.251,0.835c-0.32,0.394-0.951,0.653-1.408,0.581
					c-0.456-0.072-0.564-0.447-0.244-0.838C192.774,94.867,193.401,94.607,193.857,94.678 M188.61,101.1
					c0.294,0.053,0.359,0.307,0.146,0.568c-0.214,0.263-0.626,0.432-0.92,0.378c-0.294-0.053-0.358-0.308-0.145-0.569
					C187.905,101.217,188.316,101.048,188.61,101.1 M183.189,107.734c0.163,0.033,0.196,0.183,0.073,0.334
					c-0.124,0.151-0.356,0.246-0.521,0.213c-0.163-0.034-0.196-0.184-0.072-0.335C182.794,107.796,183.025,107.701,183.189,107.734
					 M195.245,97.954c0.704,0.114,0.884,0.7,0.397,1.309c-0.488,0.61-1.46,1.009-2.164,0.888c-0.7-0.12-0.868-0.709-0.38-1.313
					C193.586,98.234,194.545,97.84,195.245,97.954 M189.784,104.744c0.437,0.083,0.537,0.467,0.223,0.858s-0.924,0.642-1.36,0.557
					c-0.436-0.085-0.531-0.471-0.217-0.86C188.743,104.909,189.35,104.662,189.784,104.744 M184.131,111.773
					c0.201,0.043,0.243,0.231,0.092,0.419c-0.151,0.188-0.438,0.305-0.639,0.261c-0.201-0.045-0.242-0.233-0.091-0.42
					C183.645,111.845,183.93,111.729,184.131,111.773 M202.093,94.547c1.271,0.188,1.635,1.203,0.799,2.271
					c-0.844,1.075-2.57,1.784-3.844,1.577c-1.263-0.205-1.589-1.232-0.744-2.289C199.143,95.057,200.833,94.361,202.093,94.547
					 M196.608,101.479c0.895,0.155,1.13,0.912,0.517,1.692c-0.616,0.784-1.848,1.287-2.744,1.121
					c-0.89-0.164-1.105-0.928-0.489-1.701C194.506,101.82,195.719,101.323,196.608,101.479 M190.923,108.664
					c0.517,0.104,0.639,0.567,0.27,1.036s-1.091,0.763-1.607,0.654c-0.516-0.108-0.632-0.573-0.262-1.039
					C189.692,108.851,190.407,108.56,190.923,108.664 M185.023,116.118c0.173,0.04,0.208,0.204,0.08,0.366s-0.372,0.262-0.545,0.221
					c-0.172-0.04-0.207-0.205-0.079-0.367C184.608,116.177,184.852,116.078,185.023,116.118 M203.439,98.209
					c1.376,0.22,1.778,1.338,0.88,2.505c-0.903,1.175-2.769,1.937-4.147,1.694c-1.366-0.239-1.726-1.372-0.818-2.525
					C200.254,98.738,202.075,97.991,203.439,98.209 M197.902,105.325c0.99,0.185,1.256,1.038,0.583,1.908
					c-0.675,0.876-2.034,1.428-3.025,1.231c-0.985-0.195-1.228-1.057-0.551-1.919C195.583,105.687,196.919,105.142,197.902,105.325
					 M191.978,112.939c0.496,0.107,0.615,0.561,0.265,1.014c-0.353,0.454-1.042,0.733-1.537,0.623s-0.608-0.565-0.256-1.017
					C190.801,113.11,191.483,112.833,191.978,112.939 M204.89,101.983c1.486,0.255,1.931,1.485,0.971,2.757
					c-0.967,1.28-2.977,2.097-4.467,1.816c-1.477-0.278-1.87-1.525-0.899-2.78C201.458,102.531,203.417,101.731,204.89,101.983
					 M199.125,109.523c0.981,0.196,1.249,1.059,0.589,1.93c-0.664,0.875-2.006,1.418-2.988,1.21
					c-0.977-0.207-1.223-1.077-0.558-1.939C196.83,109.865,198.149,109.329,199.125,109.523 M192.993,117.545
					c0.4,0.093,0.498,0.467,0.217,0.836c-0.282,0.37-0.837,0.594-1.237,0.498c-0.399-0.094-0.493-0.469-0.212-0.837
					C192.043,117.675,192.593,117.453,192.993,117.545 M206.321,106.048c1.529,0.28,1.994,1.571,1.018,2.889
					c-0.984,1.329-3.043,2.161-4.577,1.853c-1.518-0.306-1.931-1.613-0.942-2.914C202.801,106.585,204.807,105.77,206.321,106.048
					 M200.272,114.106c0.859,0.185,1.097,0.956,0.523,1.726c-0.575,0.772-1.746,1.244-2.607,1.05
					c-0.855-0.192-1.076-0.969-0.5-1.732C198.263,114.39,199.417,113.924,200.272,114.106 M194.012,122.447
					c0.262,0.064,0.327,0.314,0.144,0.559c-0.183,0.244-0.544,0.389-0.807,0.323c-0.261-0.065-0.324-0.316-0.141-0.56
					C193.39,122.526,193.75,122.382,194.012,122.447 M207.647,110.545c1.421,0.281,1.858,1.504,0.961,2.738
					c-0.904,1.242-2.807,2.008-4.23,1.703c-1.411-0.303-1.805-1.54-0.896-2.759C204.383,111.019,206.24,110.268,207.647,110.545
					 M201.409,119.127c0.616,0.142,0.788,0.706,0.381,1.262c-0.408,0.558-1.241,0.891-1.857,0.744
					c-0.614-0.146-0.777-0.713-0.369-1.266C199.972,119.316,200.796,118.985,201.409,119.127 M208.82,115.581
					c1.106,0.235,1.45,1.21,0.757,2.179c-0.696,0.975-2.169,1.563-3.278,1.313c-1.101-0.249-1.417-1.231-0.718-2.191
					C206.276,115.928,207.722,115.347,208.82,115.581 M202.419,124.448c0.316,0.078,0.405,0.375,0.198,0.664
					c-0.208,0.289-0.635,0.459-0.952,0.379c-0.316-0.079-0.402-0.377-0.195-0.665C201.678,124.539,202.103,124.37,202.419,124.448
					 M213.449,112.573c-0.85,0.277-1.741,0.366-2.525,0.207c-1.798-0.364-2.34-1.887-1.236-3.392
					c0.42-0.573,1.019-1.062,1.697-1.431c-0.654,0.18-1.322,0.23-1.919,0.118c-1.556-0.293-2.019-1.584-1.053-2.878
					c0.957-1.283,2.975-2.103,4.525-1.837c1.567,0.268,2.082,1.542,1.13,2.853c-0.354,0.487-0.86,0.909-1.438,1.233
					c0.762-0.221,1.55-0.289,2.258-0.159c0.565,0.103,1.014,0.319,1.33,0.615c0.02-0.386,0.173-0.802,0.472-1.219
					c0.95-1.323,3.028-2.164,4.664-1.884c1.652,0.282,2.246,1.603,1.303,2.955c-0.951,1.365-3.086,2.223-4.745,1.91
					c-0.481-0.09-0.866-0.27-1.148-0.511c0,0.465-0.172,0.978-0.537,1.491c-0.473,0.666-1.188,1.224-1.997,1.613
					c0.684-0.212,1.399-0.278,2.039-0.152c1.541,0.304,2.065,1.606,1.152,2.916c-0.921,1.32-2.938,2.127-4.484,1.796
					c-1.531-0.328-2.006-1.646-1.079-2.939C212.241,113.343,212.81,112.893,213.449,112.573 M209.92,121.084
					c0.65,0.15,0.854,0.737,0.45,1.312c-0.406,0.576-1.267,0.92-1.918,0.765c-0.649-0.154-0.844-0.744-0.438-1.315
					C208.42,121.275,209.271,120.936,209.92,121.084 M217.486,117.647c1.046,0.223,1.402,1.127,0.789,2.021
					c-0.617,0.899-1.974,1.439-3.021,1.204c-1.041-0.235-1.375-1.146-0.756-2.033C215.115,117.958,216.449,117.425,217.486,117.647
					 M211.222,126.701c0.294,0.072,0.387,0.343,0.206,0.604s-0.566,0.414-0.86,0.341c-0.293-0.074-0.384-0.345-0.203-0.605
					S210.929,126.628,211.222,126.701 M225.03,114.264c1.416,0.281,1.939,1.458,1.154,2.635c-0.791,1.185-2.598,1.903-4.019,1.6
					c-1.409-0.3-1.892-1.489-1.096-2.651C221.86,114.692,223.627,113.986,225.03,114.264 M218.867,123.375
					c0.561,0.129,0.753,0.625,0.428,1.108c-0.326,0.485-1.048,0.771-1.609,0.638c-0.56-0.133-0.745-0.631-0.418-1.111
					C217.594,123.529,218.309,123.246,218.867,123.375 M226.673,119.837c0.975,0.209,1.338,1.037,0.804,1.853
					c-0.536,0.819-1.769,1.307-2.745,1.088c-0.972-0.219-1.315-1.053-0.777-1.861C224.491,120.111,225.704,119.629,226.673,119.837
					 M220.561,129.09c0.267,0.066,0.359,0.309,0.207,0.541c-0.153,0.232-0.495,0.367-0.763,0.3
					c-0.267-0.066-0.358-0.309-0.205-0.541C219.953,129.158,220.293,129.024,220.561,129.09 M234.499,116.291
					c1.409,0.279,1.975,1.43,1.247,2.574c-0.732,1.152-2.485,1.846-3.901,1.545c-1.403-0.299-1.93-1.462-1.191-2.593
					C231.387,116.694,233.102,116.013,234.499,116.291 M228.457,125.668c0.549,0.126,0.755,0.604,0.459,1.066
					c-0.298,0.464-0.987,0.735-1.536,0.605s-0.749-0.609-0.451-1.07C227.227,125.811,227.909,125.541,228.457,125.668
					 M242.142,113.06c1.633,0.302,2.328,1.584,1.533,2.868c-0.8,1.296-2.795,2.085-4.436,1.756
					c-1.625-0.324-2.271-1.622-1.463-2.891C238.579,113.534,240.524,112.761,242.142,113.06 M236.47,122.172
					c0.87,0.188,1.221,0.913,0.779,1.623c-0.444,0.714-1.516,1.135-2.389,0.939c-0.866-0.193-1.203-0.924-0.757-1.629
					C234.548,122.402,235.604,121.985,236.47,122.172 M232.907,97.727c-0.432,0.629-1.452,1.042-2.272,0.921
					c-0.817-0.121-1.124-0.725-0.69-1.348c0.434-0.62,1.439-1.028,2.255-0.914C233.019,96.5,233.338,97.101,232.907,97.727
					 M234.042,90.629c0.561-0.801,1.891-1.344,2.982-1.216c1.098,0.129,1.545,0.889,0.989,1.7c-0.56,0.816-1.913,1.366-3.015,1.227
					C233.904,92.201,233.479,91.434,234.042,90.629 M235.896,94.442c0.651-0.952,2.215-1.587,3.505-1.423
					c1.301,0.165,1.842,1.08,1.195,2.047c-0.65,0.973-2.247,1.618-3.552,1.438C235.749,96.325,235.241,95.399,235.896,94.442
					 M236.186,102.05c-0.744,1.115-2.532,1.835-3.976,1.601c-1.431-0.231-1.97-1.312-1.219-2.407
					c0.746-1.089,2.493-1.795,3.918-1.583C236.347,99.874,236.925,100.941,236.186,102.05 M224.665,112.235
					c-0.954,1.4-3.118,2.267-4.809,1.926c-1.674-0.337-2.232-1.726-1.271-3.095c0.954-1.358,3.06-2.205,4.727-1.899
					C224.996,109.477,225.612,110.847,224.665,112.235 M224.128,103.994c0.755-1.078,2.467-1.771,3.838-1.551
					c1.383,0.223,1.908,1.287,1.157,2.386c-0.755,1.104-2.505,1.81-3.894,1.567C223.854,106.157,223.366,105.079,224.128,103.994
					 M231.776,86.929c0.635-0.888,2.125-1.498,3.341-1.368c1.225,0.13,1.717,0.963,1.087,1.862
					c-0.633,0.906-2.152,1.526-3.381,1.382C231.603,88.662,231.139,87.82,231.776,86.929 M228.368,93.442
					c0.299-0.419,0.988-0.7,1.543-0.628c0.556,0.072,0.768,0.473,0.471,0.896c-0.299,0.424-0.994,0.706-1.551,0.631
					C228.276,94.266,228.07,93.863,228.368,93.442 M226.101,100.483c-0.444,0.632-1.458,1.043-2.261,0.915
					c-0.798-0.127-1.079-0.739-0.633-1.365c0.444-0.623,1.445-1.029,2.241-0.909C226.249,99.245,226.543,99.853,226.101,100.483
					 M203.054,90.08c0.829-1.037,2.535-1.742,3.824-1.58c1.301,0.164,1.697,1.148,0.871,2.204c-0.832,1.062-2.576,1.78-3.88,1.599
					C202.577,92.122,202.219,91.125,203.054,90.08 M208.021,103.783c-1.439-0.252-1.859-1.424-0.957-2.61
					c0.895-1.179,2.77-1.944,4.204-1.716c1.448,0.231,1.915,1.388,1.023,2.59C211.394,103.258,209.473,104.038,208.021,103.783
					 M215.131,100.384c-1.021-0.163-1.349-0.962-0.74-1.781c0.604-0.814,1.914-1.349,2.933-1.195
					c1.025,0.153,1.375,0.945,0.773,1.771C217.49,100.008,216.159,100.549,215.131,100.384 M222.476,92.659
					c-0.474,0.648-1.537,1.083-2.369,0.969c-0.828-0.112-1.109-0.726-0.634-1.367c0.474-0.639,1.522-1.068,2.349-0.962
					C222.652,91.406,222.947,92.015,222.476,92.659 M216.632,95.385c-0.686,0.921-2.18,1.531-3.328,1.359
					c-1.139-0.171-1.496-1.047-0.809-1.955c0.684-0.902,2.15-1.503,3.287-1.346C216.927,93.602,217.312,94.469,216.632,95.385
					 M216.879,88.533c0.763-1.006,2.434-1.693,3.745-1.541c1.323,0.152,1.793,1.102,1.034,2.124
					c-0.765,1.029-2.472,1.729-3.798,1.559C216.544,90.506,216.111,89.545,216.879,88.533 M224.196,88.074
					c-1.346-0.158-1.817-1.106-1.068-2.112c0.745-1,2.424-1.691,3.766-1.55c1.352,0.144,1.86,1.079,1.121,2.096
					C227.27,87.531,225.554,88.234,224.196,88.074 M220.046,103.344c-0.684,0.958-2.202,1.571-3.379,1.368
					c-1.167-0.203-1.547-1.134-0.859-2.077c0.684-0.938,2.172-1.542,3.337-1.354C220.317,101.47,220.727,102.392,220.046,103.344
					 M223.751,96.409c-0.307,0.426-0.998,0.707-1.543,0.628c-0.542-0.08-0.731-0.488-0.425-0.911
					c0.307-0.422,0.992-0.701,1.534-0.625C223.86,95.578,224.056,95.984,223.751,96.409 M225.89,89.633
					c0.462-0.635,1.517-1.066,2.361-0.967c0.85,0.101,1.171,0.701,0.711,1.342c-0.462,0.645-1.531,1.082-2.383,0.975
					C225.732,90.875,225.427,90.271,225.89,89.633 M203.853,93.546c1.021-1.295,3.128-2.162,4.729-1.946
					c0.586,0.08,1.025,0.294,1.301,0.597c0.002-0.353,0.15-0.747,0.461-1.147c0.89-1.15,2.779-1.929,4.24-1.745
					c1.474,0.185,1.967,1.28,1.082,2.452c-0.893,1.18-2.829,1.975-4.308,1.767c-0.51-0.071-0.896-0.253-1.146-0.508
					c0.016,0.417-0.152,0.889-0.522,1.371c-0.371,0.483-0.895,0.909-1.489,1.244c0.559-0.142,1.123-0.188,1.633-0.113
					c1.48,0.219,1.95,1.379,1.029,2.599c-0.929,1.229-2.9,2.035-4.386,1.792c-1.472-0.24-1.892-1.417-0.96-2.622
					c0.322-0.416,0.764-0.781,1.263-1.073c-0.653,0.178-1.313,0.237-1.901,0.147C203.272,96.115,202.824,94.852,203.853,93.546
					 M227.151,79.989c0.836-1.119,2.758-1.914,4.312-1.781c1.567,0.134,2.183,1.162,1.354,2.304c-0.836,1.149-2.805,1.96-4.38,1.805
					c-0.725-0.072-1.234-0.336-1.489-0.711c0.178,0.419,0.088,0.942-0.316,1.488c-0.877,1.185-2.883,2.011-4.462,1.839
					c-0.618-0.067-1.075-0.278-1.348-0.58c0.068,0.386-0.06,0.838-0.411,1.306c-0.899,1.19-2.896,2.013-4.439,1.828
					c-0.605-0.071-1.047-0.288-1.305-0.595c0.055,0.391-0.085,0.847-0.446,1.316c-0.92,1.198-2.906,2.016-4.416,1.819
					c-1.495-0.193-1.942-1.309-1.017-2.482c0.918-1.166,2.855-1.967,4.346-1.796c0.592,0.067,1.026,0.278,1.281,0.581
					c-0.054-0.386,0.086-0.834,0.441-1.293c0.897-1.159,2.845-1.965,4.368-1.805c0.604,0.062,1.054,0.269,1.323,0.566
					c-0.067-0.381,0.061-0.825,0.408-1.282c0.876-1.152,2.833-1.962,4.39-1.814c0.728,0.069,1.242,0.334,1.501,0.716
					C226.675,81.013,226.763,80.511,227.151,79.989 M249.02,108.189c-0.894,1.451-3.187,2.362-5.094,2.027
					c-0.656-0.115-1.178-0.363-1.541-0.697c0.099,0.527-0.021,1.116-0.396,1.709c-1.037,1.641-3.598,2.658-5.687,2.263
					c-0.753-0.143-1.337-0.45-1.725-0.86c0.05,0.458-0.077,0.963-0.406,1.469c-0.954,1.469-3.218,2.368-5.032,2.003
					c-1.793-0.361-2.447-1.822-1.484-3.257c0.955-1.421,3.155-2.302,4.94-1.975c0.624,0.115,1.116,0.361,1.456,0.695
					c-0.076-0.524,0.061-1.104,0.441-1.684c0.274-0.418,0.648-0.794,1.087-1.114c-0.537,0.072-1.075,0.07-1.583-0.019
					c-0.707-0.125-1.254-0.402-1.619-0.776c0.05,0.45-0.08,0.95-0.416,1.454c-0.961,1.445-3.22,2.349-5.02,2.01
					c-1.779-0.336-2.414-1.759-1.444-3.171c0.963-1.4,3.159-2.283,4.93-1.98c0.625,0.106,1.116,0.348,1.45,0.676
					c-0.063-0.486,0.072-1.025,0.437-1.566c1.001-1.489,3.366-2.44,5.309-2.134c0.463,0.074,0.861,0.213,1.188,0.401
					c0.035-0.366,0.175-0.752,0.429-1.139c0.344-0.523,0.854-0.982,1.457-1.35c-0.582,0.119-1.179,0.146-1.735,0.062
					c-1.767-0.269-2.466-1.555-1.585-2.867c0.874-1.301,2.988-2.156,4.745-1.916c0.613,0.083,1.104,0.289,1.45,0.578
					c-0.096-0.468,0.015-0.991,0.363-1.521c0.322-0.492,0.811-0.928,1.39-1.278c-0.616,0.139-1.252,0.181-1.847,0.104
					c-1.815-0.235-2.559-1.487-1.684-2.79c0.867-1.291,3.016-2.164,4.82-1.957c0.48,0.055,0.888,0.182,1.214,0.36
					c-0.011-0.382,0.113-0.794,0.388-1.212c0.125-0.188,0.274-0.369,0.443-0.541c-0.348,0.021-0.692,0.015-1.027-0.022
					c-0.604-0.066-1.11-0.225-1.506-0.45c-0.038,0.248-0.142,0.509-0.318,0.774c-0.823,1.237-2.899,2.081-4.616,1.877
					c-1.698-0.202-2.384-1.354-1.55-2.566c0.826-1.203,2.85-2.029,4.539-1.853c0.366,0.039,0.688,0.121,0.958,0.239
					c0.002-0.379,0.136-0.787,0.415-1.202c0.23-0.341,0.539-0.657,0.904-0.94c-0.336,0.032-0.67,0.035-0.992,0.004
					c-0.783-0.078-1.363-0.346-1.694-0.725c0.187,0.418,0.125,0.927-0.235,1.456c-0.823,1.208-2.875,2.046-4.561,1.862
					c-1.669-0.181-2.33-1.294-1.498-2.479c0.301-0.428,0.755-0.808,1.291-1.11c-0.705,0.208-1.443,0.298-2.123,0.23
					c-0.741-0.074-1.29-0.321-1.611-0.676c0.133,0.386,0.047,0.85-0.297,1.332c-0.815,1.146-2.759,1.942-4.321,1.773
					c-1.548-0.169-2.12-1.222-1.298-2.347c0.817-1.116,2.714-1.897,4.255-1.751c0.638,0.062,1.117,0.271,1.406,0.576
					c-0.157-0.43-0.065-0.945,0.317-1.478c0.885-1.231,2.999-2.104,4.747-1.954c1.766,0.15,2.507,1.284,1.632,2.541
					c-0.327,0.472-0.835,0.891-1.436,1.224c0.635-0.181,1.301-0.259,1.923-0.199c0.735,0.069,1.284,0.319,1.602,0.679
					c-0.194-0.43-0.132-0.95,0.238-1.488c0.833-1.211,2.914-2.064,4.671-1.914c0.697,0.06,1.242,0.269,1.598,0.575
					c-0.139-0.396-0.066-0.856,0.254-1.334c0.809-1.203,2.9-2.062,4.695-1.925c0.582,0.045,1.062,0.188,1.422,0.403
					c-0.072-0.359,0.015-0.762,0.287-1.177c0.82-1.25,3.021-2.152,4.938-2.023c1.938,0.13,2.876,1.264,2.068,2.54
					c-0.377,0.598-1.07,1.118-1.901,1.488c0.767-0.282,1.631-0.424,2.444-0.361c1.777,0.137,2.647,1.194,1.923,2.368
					c-0.729,1.185-2.789,2.021-4.578,1.862c-0.487-0.044-0.902-0.157-1.232-0.321c0.069,0.396-0.026,0.836-0.312,1.289
					c-0.307,0.485-0.792,0.922-1.383,1.281c0.521-0.103,1.057-0.138,1.57-0.089c1.795,0.171,2.655,1.298,1.899,2.524
					c-0.763,1.236-2.863,2.086-4.671,1.89c-0.491-0.053-0.909-0.179-1.24-0.358c0.062,0.418-0.043,0.881-0.341,1.354
					c-0.298,0.472-0.751,0.897-1.3,1.251c0.501-0.083,1.012-0.104,1.501-0.048c1.858,0.214,2.729,1.446,1.919,2.76
					c-0.816,1.324-3.014,2.209-4.885,1.967c-0.645-0.084-1.163-0.29-1.53-0.578c0.117,0.469,0.022,1-0.319,1.541
					c-0.343,0.543-0.887,1.02-1.539,1.393c0.652-0.156,1.337-0.205,1.982-0.117c1.877,0.256,2.732,1.57,1.887,2.944
					c-0.854,1.386-3.099,2.283-4.987,1.996c-0.587-0.089-1.069-0.281-1.426-0.546c0.073,0.479-0.045,1.009-0.384,1.546
					c-0.34,0.538-0.858,1.013-1.477,1.392c0.604-0.119,1.227-0.143,1.815-0.049C249.067,105.348,249.905,106.752,249.02,108.189
					 M252.102,81.345c-0.715-0.063-1.269-0.278-1.628-0.589c0.141,0.399,0.069,0.87-0.256,1.358c-0.141,0.212-0.32,0.412-0.529,0.6
					c0.532-0.082,1.07-0.104,1.587-0.057c0.331,0.031,0.636,0.09,0.91,0.172c0.06-0.176,0.147-0.355,0.267-0.537
					c0.242-0.367,0.586-0.705,0.998-1.001C252.997,81.362,252.54,81.384,252.102,81.345 M240.063,107.656
					c0.751,0.127,1.344,0.418,1.748,0.813c-0.064-0.445,0.047-0.936,0.361-1.425c0.281-0.441,0.693-0.832,1.182-1.149
					c-0.738,0.164-1.502,0.203-2.213,0.086c-0.521-0.086-0.966-0.247-1.322-0.466c-0.04,0.344-0.172,0.704-0.408,1.067
					c-0.256,0.396-0.609,0.754-1.025,1.063C238.951,107.565,239.521,107.563,240.063,107.656 M243.79,99.292
					c-0.271,0.419-0.672,0.792-1.148,1.101c0.721-0.166,1.469-0.212,2.172-0.108c0.706,0.103,1.277,0.344,1.688,0.678
					c-0.034-0.387,0.074-0.808,0.345-1.229c0.298-0.467,0.756-0.877,1.301-1.203c-0.761,0.195-1.56,0.26-2.303,0.154
					c-0.74-0.104-1.322-0.362-1.717-0.717C244.194,98.374,244.091,98.83,243.79,99.292 M249.282,93.349
					c0.738,0.092,1.328,0.335,1.737,0.677c-0.08-0.396,0.011-0.839,0.297-1.287c0.228-0.356,0.556-0.68,0.95-0.957
					c-0.666,0.135-1.348,0.174-1.994,0.097c-0.627-0.075-1.148-0.253-1.546-0.503c-0.014,0.309-0.124,0.639-0.341,0.975
					c-0.28,0.432-0.704,0.817-1.211,1.134C247.871,93.318,248.597,93.264,249.282,93.349 M252.913,86.467
					c0.279-0.01,0.558-0.003,0.83,0.025c0.668,0.069,1.222,0.253,1.64,0.518c-0.013-0.303,0.081-0.628,0.293-0.959
					c0.23-0.361,0.575-0.688,0.991-0.963c-0.701,0.162-1.43,0.223-2.119,0.154c-0.271-0.027-0.523-0.073-0.754-0.136
					c-0.062,0.225-0.166,0.457-0.318,0.691C253.324,86.033,253.134,86.257,252.913,86.467 M258.707,78.723
					c-0.64-0.051-1.163-0.213-1.547-0.451c0.062,0.342-0.023,0.726-0.281,1.121c-0.185,0.285-0.44,0.549-0.747,0.788
					c0.579-0.109,1.172-0.148,1.741-0.101c0.661,0.057,1.214,0.222,1.632,0.468c-0.018-0.287,0.068-0.598,0.271-0.915
					c0.34-0.532,0.949-0.992,1.679-1.32C260.588,78.635,259.612,78.796,258.707,78.723 M249.345,110.592
					c1.29,0.225,1.864,1.202,1.271,2.186c-0.597,0.99-2.142,1.602-3.437,1.361c-1.287-0.238-1.832-1.225-1.229-2.199
					C246.549,110.971,248.063,110.369,249.345,110.592 M244.261,118.995c0.989,0.198,1.413,0.993,0.939,1.776
					c-0.476,0.786-1.671,1.257-2.663,1.048c-0.987-0.207-1.393-1.007-0.914-1.783C242.1,119.263,243.278,118.798,244.261,118.995
					 M238.562,128.248c0.438,0.102,0.616,0.476,0.397,0.836c-0.22,0.361-0.755,0.57-1.192,0.467
					c-0.438-0.104-0.613-0.479-0.393-0.838C237.593,128.355,238.124,128.147,238.562,128.248 M251.769,116.269
					c0.791,0.149,1.147,0.762,0.79,1.369c-0.358,0.609-1.296,0.979-2.091,0.822c-0.79-0.154-1.135-0.771-0.773-1.374
					C250.054,116.485,250.98,116.12,251.769,116.269 M246.507,125.138c0.45,0.098,0.645,0.467,0.433,0.825s-0.75,0.569-1.2,0.469
					c-0.449-0.1-0.641-0.47-0.428-0.826S246.059,125.04,246.507,125.138 M263.878,105.717c0.45,0.069,0.668,0.388,0.482,0.71
					c-0.186,0.324-0.703,0.529-1.155,0.458c-0.45-0.07-0.665-0.39-0.478-0.711C262.912,105.852,263.427,105.648,263.878,105.717
					 M259.267,113.731c0.405,0.072,0.595,0.375,0.422,0.676c-0.172,0.302-0.643,0.487-1.049,0.413
					c-0.405-0.073-0.593-0.377-0.42-0.677C258.394,113.844,258.861,113.659,259.267,113.731 M254.423,122.148
					c0.359,0.073,0.521,0.356,0.363,0.634c-0.159,0.277-0.58,0.442-0.939,0.368c-0.358-0.075-0.52-0.359-0.36-0.636
					C253.646,122.239,254.065,122.075,254.423,122.148"/>
			</g>
		</g>
	</g>
</g>
<g id="Touristik">
</g>
<g id="Vollsortiment_International">
</g>
<g id="Vollsortiment_National">
</g>
</svg>
